# xmcd
#
# Track frame offsets:
#	150
#	14813
#	33499
#	52689
#	85905
#	104387
#	119908
#	145046
#	167256
#	180031
#	190428
#	203431
#	225381
#	254323
#	274329
#
# Disc length: 4008 seconds
#
# Revision: 4
# Processed by: cddbd v1.5.2PL0 Copyright (c) Steve Scherf et al.
# Submitted via: EZCDAudioConverter 1.3.4.1
#
DISCID=c20fa60f
DTITLE=Rickie Lee Jones - Duchess Of Coolsville 3/3
DYEAR=2005
DGENRE=
TTITLE0=Sunshine Superman
TTITLE1=Makin' Whoopee!
TTITLE2=Autumn Leaves
TTITLE3=Atlas' Marker (The Aviator) [Live]
TTITLE4=Easter Parade
TTITLE5=My Funny Valentine [Live]
TTITLE6=Something Cool [Live]
TTITLE7=The Evening Of My Best Day [Live]
TTITLE8=Young Blood [Demo]
TTITLE9=After Hours (Twelve Bars Past Goodnight) [Demo]
TTITLE10=Easy Money [Demo]
TTITLE11=Rodeo Girl [Demo]
TTITLE12=Satellites [Demo]
TTITLE13=Rondo For 3 Apartments On 34th Street [Demo]
TTITLE14=Atlas' Marker [Bruce Mix - Demo]
EXTD=
EXTT0=
EXTT1=
EXTT2=
EXTT3=
EXTT4=
EXTT5=
EXTT6=
EXTT7=
EXTT8=
EXTT9=
EXTT10=
EXTT11=
EXTT12=
EXTT13=
EXTT14=
PLAYORDER=
